<svg xmlns="http://www.w3.org/2000/svg" viewBox="0 0 200 200" role="img" aria-label="">
  <g fill="none" stroke="#f04f9c" stroke-width="1.4" opacity=".9">
    <path d="M69 69h25M69 73h16M106 69h25M115 73h16"/>
    <path d="M69 127h18M69 131h28M104 127h27M112 131h19"/>
    <path d="M64 62h7v7M136 62h-7v7M64 138h7v-7M136 138h-7v-7"/>
  </g>
  <g fill="#ff5aa7" opacity=".86">
    <rect x="74" y="80" width="4" height="3"/>
    <rect x="80" y="80" width="10" height="3"/>
    <rect x="92" y="80" width="3" height="3"/>
    <rect x="98" y="80" width="15" height="3"/>
    <rect x="116" y="80" width="6" height="3"/>
    <rect x="78" y="117" width="12" height="3"/>
    <rect x="93" y="117" width="5" height="3"/>
    <rect x="101" y="117" width="17" height="3"/>
    <rect x="121" y="117" width="4" height="3"/>
  </g>
  <g fill="#8d294f" opacity=".65">
    <rect x="82" y="91" width="3" height="18"/>
    <rect x="88" y="91" width="1" height="18"/>
    <rect x="92" y="91" width="5" height="18"/>
    <rect x="100" y="91" width="2" height="18"/>
    <rect x="105" y="91" width="4" height="18"/>
    <rect x="112" y="91" width="1" height="18"/>
    <rect x="116" y="91" width="3" height="18"/>
  </g>
</svg>
